{"title":"Antfarm.Dickhole.2011.DVDRiP.AC3-2.0.XviD-SiC.","uid":7030880,"size":1367125391,"categoryP":"video","categoryS":"movies","magnet":"?xt=urn:btih:b6440a53430157516563e66f95f246576aeab3f6&amp;dn=Antfarm.Dickhole.2011.DVDRiP.AC3-2.0.XviD-SiC.&amp;tr=udp%3A%2F%2Ftracker.openbittorrent.com%3A80&amp;tr=udp%3A%2F%2Fopen.demonii.com%3A1337&amp;tr=udp%3A%2F%2Ftracker.coppersurfer.tk%3A6969&amp;tr=udp%3A%2F%2Fexodus.desync.com%3A6969","seeders":2,"leechers":0,"uploader":"moviesp2p","files":3,"time":1329213126,"description":"Antfarm.Dickhole.2011.DVDRiP.AC3-2.0.XviD-SiC\n\nPoster:\n[img]http://img36.imageshack.us/img36/258/mvd5268d.jpg[/img]\n\nIMDB Link: &lt;a href=&quot;\nhttp://www.imdb.com/title/tt2028457/&quot; rel=&quot;nofollow&quot; target=&quot;_NEW&quot;&gt;\nhttp://www.imdb.com/title/tt2028457/&lt;/a&gt;\n\nDescription:\nHailed as having \\&quot;the most WTF moments in movie history\\&quot; Antfarm Dickhole is the story of rampaging army ants that have nested inside a living human body. The unwilling host discovers that when bullies attack him, the ants defend their nest. Thus begins a tragic tale of what happens when the powerless become powerful.\n\n\nGeneral\nComplete name                    : Antfarm.Dickhole.2011.DVDRiP.AC3-2.0.XviD-SiC.avi\nFormat                           : AVI\nFormat/Info                      : Audio Video Interleave\nFile size                        : 1.26 GiB\nDuration                         : 1h 25mn\nOverall bit rate                 : 2 116 Kbps\nWriting library                  : VirtualDub build 32839/release\n\nVideo\nID                               : 0\nFormat                           : MPEG-4 Visual\nFormat profile                   : Simple@L3\nFormat settings, BVOP            : 2\nFormat settings, QPel            : No\nFormat settings, GMC             : No warppoints\nFormat settings, Matrix          : Default (H.263)\nMuxing mode                      : Packed bitstream\nCodec ID                         : XVID\nCodec ID/Hint                    : XviD\nDuration                         : 1h 25mn\nBit rate                         : 1 849 Kbps\nWidth                            : 720 pixels\nHeight                           : 400 pixels\nDisplay aspect ratio             : 16:9\nFrame rate                       : 29.970 fps\nColor space                      : YUV\nChroma subsampling               : 4:2:0\nBit depth                        : 8 bits\nScan type                        : Progressive\nCompression mode                 : Lossy\nBits/(Pixel*Frame)               : 0.214\nStream size                      : 1.10 GiB (87%)\nWriting library                  : XviD 1.0.3 (UTC 2004-12-20)\n\nAudio\nID                               : 1\nFormat                           : AC-3\nFormat/Info                      : Audio Coding 3\nMode extension                   : CM (complete main)\nCodec ID                         : 2000\nDuration                         : 1h 25mn\nBit rate mode                    : Constant\nBit rate                         : 256 Kbps\nChannel(s)                       : 2 channels\nChannel positions                : Front: L R\nSampling rate                    : 48.0 KHz\nBit depth                        : 16 bits\nCompression mode                 : Lossy\nStream size                      : 156 MiB (12%)\nAlignment                        : Split accross interleaves\nInterleave, duration             : 33 ms (1.00 video frame)\nInterleave, preload duration     : 500 ms\n\n\n","torrent":{"xt":"urn:btih:b6440a53430157516563e66f95f246576aeab3f6","amp;dn":"Antfarm.Dickhole.2011.DVDRiP.AC3-2.0.XviD-SiC.","amp;tr":["udp%3A%2F%2Ftracker.openbittorrent.com%3A80","udp%3A%2F%2Fopen.demonii.com%3A1337","udp%3A%2F%2Ftracker.coppersurfer.tk%3A6969","udp%3A%2F%2Fexodus.desync.com%3A6969"],"infoHash":"b6440a53430157516563e66f95f246576aeab3f6","infoHashBuffer":{"type":"Buffer","data":[182,68,10,83,67,1,87,81,101,99,230,111,149,242,70,87,106,234,179,246]},"announce":[],"urlList":[]}}